<?xml version="1.0" standalone="yes"?>

<svg version="1.1" viewBox="0.0 0.0 188.28346456692913 100.0" fill="none" stroke="none" stroke-linecap="square" stroke-miterlimit="10" xmlns="http://www.w3.org/2000/svg" xmlns:xlink="http://www.w3.org/1999/xlink"><clipPath id="p.0"><path d="m0 0l188.28346 0l0 100.0l-188.28346 0l0 -100.0z" clip-rule="nonzero"></path></clipPath><g clip-path="url(#p.0)"><path fill="#000000" fill-opacity="0.0" d="m0 0l188.28346 0l0 100.0l-188.28346 0z" fill-rule="nonzero"></path><path fill="#ffffff" d="m80.0 48.138584l7.1181107 0l0 6.2677155l-7.1181107 0z" fill-rule="nonzero"></path><path stroke="#4a86e8" stroke-width="1.0" stroke-linejoin="round" stroke-linecap="butt" d="m80.0 48.138584l7.1181107 0l0 6.2677155l-7.1181107 0z" fill-rule="nonzero"></path><path fill="#ffffff" d="m86.4 48.138584l7.1181107 0l0 6.2677155l-7.1181107 0z" fill-rule="nonzero"></path><path stroke="#4a86e8" stroke-width="1.0" stroke-linejoin="round" stroke-linecap="butt" d="m86.4 48.138584l7.1181107 0l0 6.2677155l-7.1181107 0z" fill-rule="nonzero"></path><path fill="#ffffff" d="m92.8 48.138584l7.1181107 0l0 6.2677155l-7.1181107 0z" fill-rule="nonzero"></path><path stroke="#4a86e8" stroke-width="1.0" stroke-linejoin="round" stroke-linecap="butt" d="m92.8 48.138584l7.1181107 0l0 6.2677155l-7.1181107 0z" fill-rule="nonzero"></path><path fill="#ffffff" d="m99.2 48.138584l7.1181107 0l0 6.2677155l-7.1181107 0z" fill-rule="nonzero"></path><path stroke="#4a86e8" stroke-width="1.0" stroke-linejoin="round" stroke-linecap="butt" d="m99.2 48.138584l7.1181107 0l0 6.2677155l-7.1181107 0z" fill-rule="nonzero"></path><path fill="#ffffff" d="m106.31811 48.138584l7.1181107 0l0 6.2677155l-7.1181107 0z" fill-rule="nonzero"></path><path stroke="#4a86e8" stroke-width="1.0" stroke-linejoin="round" stroke-linecap="butt" d="m106.31811 48.138584l7.1181107 0l0 6.2677155l-7.1181107 0z" fill-rule="nonzero"></path><path fill="#ffffff" d="m112.71811 48.138584l7.1181107 0l0 6.2677155l-7.1181107 0z" fill-rule="nonzero"></path><path stroke="#4a86e8" stroke-width="1.0" stroke-linejoin="round" stroke-linecap="butt" d="m112.71811 48.138584l7.1181107 0l0 6.2677155l-7.1181107 0z" fill-rule="nonzero"></path><path fill="#ffffff" d="m119.11811 48.138584l7.1181107 0l0 6.2677155l-7.1181107 0z" fill-rule="nonzero"></path><path stroke="#4a86e8" stroke-width="1.0" stroke-linejoin="round" stroke-linecap="butt" d="m119.11811 48.138584l7.1181107 0l0 6.2677155l-7.1181107 0z" fill-rule="nonzero"></path><path fill="#ffffff" d="m125.51811 48.138584l7.118103 0l0 6.2677155l-7.118103 0z" fill-rule="nonzero"></path><path stroke="#4a86e8" stroke-width="1.0" stroke-linejoin="round" stroke-linecap="butt" d="m125.51811 48.138584l7.118103 0l0 6.2677155l-7.118103 0z" fill-rule="nonzero"></path><path fill="#ffffff" d="m131.9181 48.138584l7.1181183 0l0 6.2677155l-7.1181183 0z" fill-rule="nonzero"></path><path stroke="#4a86e8" stroke-width="1.0" stroke-linejoin="round" stroke-linecap="butt" d="m131.9181 48.138584l7.1181183 0l0 6.2677155l-7.1181183 0z" fill-rule="nonzero"></path><path fill="#ffffff" d="m138.31812 48.138584l7.118103 0l0 6.2677155l-7.118103 0z" fill-rule="nonzero"></path><path stroke="#4a86e8" stroke-width="1.0" stroke-linejoin="round" stroke-linecap="butt" d="m138.31812 48.138584l7.118103 0l0 6.2677155l-7.118103 0z" fill-rule="nonzero"></path><path fill="#ffffff" d="m144.71811 48.138584l7.1181183 0l0 6.2677155l-7.1181183 0z" fill-rule="nonzero"></path><path stroke="#4a86e8" stroke-width="1.0" stroke-linejoin="round" stroke-linecap="butt" d="m144.71811 48.138584l7.1181183 0l0 6.2677155l-7.1181183 0z" fill-rule="nonzero"></path><path fill="#b7b7b7" d="m151.1181 48.138584l7.1181183 0l0 6.2677155l-7.1181183 0z" fill-rule="nonzero"></path><path stroke="#4a86e8" stroke-width="1.0" stroke-linejoin="round" stroke-linecap="butt" d="m151.1181 48.138584l7.1181183 0l0 6.2677155l-7.1181183 0z" fill-rule="nonzero"></path><path fill="#b7b7b7" d="m158.23622 48.138584l7.118103 0l0 6.2677155l-7.118103 0z" fill-rule="nonzero"></path><path stroke="#4a86e8" stroke-width="1.0" stroke-linejoin="round" stroke-linecap="butt" d="m158.23622 48.138584l7.118103 0l0 6.2677155l-7.118103 0z" fill-rule="nonzero"></path><path fill="#b7b7b7" d="m164.63622 48.138584l7.1181183 0l0 6.2677155l-7.1181183 0z" fill-rule="nonzero"></path><path stroke="#4a86e8" stroke-width="1.0" stroke-linejoin="round" stroke-linecap="butt" d="m164.63622 48.138584l7.1181183 0l0 6.2677155l-7.1181183 0z" fill-rule="nonzero"></path><path fill="#b7b7b7" d="m171.03622 48.138584l7.118103 0l0 6.2677155l-7.118103 0z" fill-rule="nonzero"></path><path stroke="#4a86e8" stroke-width="1.0" stroke-linejoin="round" stroke-linecap="butt" d="m171.03622 48.138584l7.118103 0l0 6.2677155l-7.118103 0z" fill-rule="nonzero"></path><path fill="#b7b7b7" d="m177.43622 48.138584l7.1181183 0l0 6.2677155l-7.1181183 0z" fill-rule="nonzero"></path><path stroke="#4a86e8" stroke-width="1.0" stroke-linejoin="round" stroke-linecap="butt" d="m177.43622 48.138584l7.1181183 0l0 6.2677155l-7.1181183 0z" fill-rule="nonzero"></path><path fill="#000000" fill-opacity="0.0" d="m80.71811 41.6l99.2126 0" fill-rule="nonzero"></path><path stroke="#000000" stroke-width="1.0" stroke-linejoin="round" stroke-linecap="butt" d="m80.71811 41.6l93.2126 0" fill-rule="evenodd"></path><path fill="#000000" stroke="#000000" stroke-width="1.0" stroke-linecap="butt" d="m173.93071 43.25173l4.538101 -1.6517334l-4.538101 -1.6517334z" fill-rule="evenodd"></path><path fill="#000000" fill-opacity="0.0" d="m99.91811 32.0l60.78739 0l0 9.6063l-60.78739 0z" fill-rule="nonzero"></path><path fill="#000000" d="m108.207016 39.729374l0.0625 0.390625q-0.1875 0.03125 -0.34375 0.03125q-0.234375 0 -0.375 -0.078125q-0.125 -0.078125 -0.1875 -0.1875q-0.046875 -0.125 -0.046875 -0.53125l0 -1.484375l-0.3125 0l0 -0.34375l0.3125 0l0 -0.640625l0.4375 -0.265625l0 0.90625l0.453125 0l0 0.34375l-0.453125 0l0 1.515625q0 0.1875 0.015625 0.25q0.03125 0.046875 0.078125 0.078125q0.0625 0.03125 0.15625 0.03125q0.078125 0 0.203125 -0.015625zm0.5115814 0.390625l0 -3.578125l0.4375 0l0 1.28125q0.3125 -0.359375 0.78125 -0.359375q0.28125 0 0.5 0.125q0.21875 0.109375 0.296875 0.3125q0.09375 0.1875 0.09375 0.578125l0 1.640625l-0.4375 0l0 -1.640625q0 -0.328125 -0.140625 -0.46875q-0.140625 -0.15625 -0.40625 -0.15625q-0.1875 0 -0.359375 0.09375q-0.171875 0.09375 -0.25 0.28125q-0.078125 0.171875 -0.078125 0.46875l0 1.421875l-0.4375 0zm4.744507 -0.828125l0.453125 0.046875q-0.109375 0.40625 -0.40625 0.625q-0.28125 0.21875 -0.734375 0.21875q-0.578125 0 -0.90625 -0.34375q-0.328125 -0.359375 -0.328125 -1.0q0 -0.640625 0.328125 -1.0q0.34375 -0.375 0.875 -0.375q0.53125 0 0.859375 0.359375q0.328125 0.359375 0.328125 1.0q0 0.03125 0 0.109375l-1.9375 0q0.015625 0.4375 0.234375 0.671875q0.21875 0.21875 0.546875 0.21875q0.234375 0 0.40625 -0.125q0.171875 -0.140625 0.28125 -0.40625zm-1.453125 -0.71875l1.453125 0q-0.03125 -0.328125 -0.171875 -0.484375q-0.203125 -0.265625 -0.53125 -0.265625q-0.3125 0 -0.515625 0.203125q-0.203125 0.203125 -0.234375 0.546875zm4.1154633 1.546875l0 -3.578125l0.4375 0l0 1.28125q0.3125 -0.359375 0.78125 -0.359375q0.28125 0 0.5 0.125q0.21875 0.109375 0.296875 0.3125q0.09375 0.1875 0.09375 0.578125l0 1.640625l-0.4375 0l0 -1.640625q0 -0.328125 -0.140625 -0.46875q-0.140625 -0.15625 -0.40625 -0.15625q-0.1875 0 -0.359375 0.09375q-0.171875 0.09375 -0.25 0.28125q-0.078125 0.171875 -0.078125 0.46875l0 1.421875l-0.4375 0zm2.9632568 -3.078125l0 -0.5l0.4375 0l0 0.5l-0.4375 0zm0 3.078125l0 -2.59375l0.4375 0l0 2.59375l-0.4375 0zm1.1056213 0.21875l0.421875 0.0625q0.03125 0.1875 0.15625 0.28125q0.15625 0.125 0.4375 0.125q0.3125 0 0.46875 -0.125q0.171875 -0.125 0.234375 -0.34375q0.03125 -0.125 0.03125 -0.5625q-0.28125 0.34375 -0.71875 0.34375q-0.53125 0 -0.828125 -0.375q-0.296875 -0.390625 -0.296875 -0.9375q0 -0.375 0.140625 -0.6875q0.140625 -0.3125 0.390625 -0.484375q0.25 -0.171875 0.59375 -0.171875q0.46875 0 0.765625 0.375l0 -0.3125l0.40625 0l0 2.234375q0 0.609375 -0.125 0.859375q-0.125 0.265625 -0.390625 0.40625q-0.265625 0.140625 -0.65625 0.140625q-0.46875 0 -0.765625 -0.203125q-0.28125 -0.203125 -0.265625 -0.625zm0.359375 -1.5625q0 0.515625 0.203125 0.75q0.203125 0.234375 0.515625 0.234375q0.296875 0 0.5 -0.234375q0.203125 -0.234375 0.203125 -0.734375q0 -0.46875 -0.21875 -0.703125q-0.203125 -0.25 -0.5 -0.25q-0.296875 0 -0.5 0.234375q-0.203125 0.234375 -0.203125 0.703125zm2.6820068 1.34375l0 -3.578125l0.4375 0l0 1.28125q0.3125 -0.359375 0.78125 -0.359375q0.28125 0 0.5 0.125q0.21875 0.109375 0.296875 0.3125q0.09375 0.1875 0.09375 0.578125l0 1.640625l-0.4375 0l0 -1.640625q0 -0.328125 -0.140625 -0.46875q-0.140625 -0.15625 -0.40625 -0.15625q-0.1875 0 -0.359375 0.09375q-0.171875 0.09375 -0.25 0.28125q-0.078125 0.171875 -0.078125 0.46875l0 1.421875l-0.4375 0zm4.744507 -0.828125l0.453125 0.046875q-0.109375 0.40625 -0.40625 0.625q-0.28125 0.21875 -0.734375 0.21875q-0.578125 0 -0.90625 -0.34375q-0.328125 -0.359375 -0.328125 -1.0q0 -0.640625 0.328125 -1.0q0.34375 -0.375 0.875 -0.375q0.53125 0 0.859375 0.359375q0.328125 0.359375 0.328125 1.0q0 0.03125 0 0.109375l-1.9375 0q0.015625 0.4375 0.234375 0.671875q0.21875 0.21875 0.546875 0.21875q0.234375 0 0.40625 -0.125q0.171875 -0.140625 0.28125 -0.40625zm-1.453125 -0.71875l1.453125 0q-0.03125 -0.328125 -0.171875 -0.484375q-0.203125 -0.265625 -0.53125 -0.265625q-0.3125 0 -0.515625 0.203125q-0.203125 0.203125 -0.234375 0.546875zm2.6351318 1.546875l0 -2.59375l0.390625 0l0 0.390625q0.15625 -0.265625 0.28125 -0.359375q0.125 -0.09375 0.28125 -0.09375q0.21875 0 0.453125 0.140625l-0.15625 0.40625q-0.15625 -0.09375 -0.3125 -0.09375q-0.15625 0 -0.265625 0.09375q-0.109375 0.078125 -0.15625 0.234375q-0.078125 0.234375 -0.078125 0.515625l0 1.359375l-0.4375 0zm4.2233887 -0.390625l0.0625 0.390625q-0.1875 0.03125 -0.34375 0.03125q-0.234375 0 -0.375 -0.078125q-0.125 -0.078125 -0.1875 -0.1875q-0.046875 -0.125 -0.046875 -0.53125l0 -1.484375l-0.3125 0l0 -0.34375l0.3125 0l0 -0.640625l0.4375 -0.265625l0 0.90625l0.453125 0l0 0.34375l-0.453125 0l0 1.515625q0 0.1875 0.015625 0.25q0.03125 0.046875 0.078125 0.078125q0.0625 0.03125 0.15625 0.03125q0.078125 0 0.203125 -0.015625zm0.5115814 0.390625l0 -3.578125l0.4375 0l0 1.28125q0.3125 -0.359375 0.78125 -0.359375q0.28125 0 0.5 0.125q0.21875 0.109375 0.296875 0.3125q0.09375 0.1875 0.09375 0.578125l0 1.640625l-0.4375 0l0 -1.640625q0 -0.328125 -0.140625 -0.46875q-0.140625 -0.15625 -0.40625 -0.15625q-0.1875 0 -0.359375 0.09375q-0.171875 0.09375 -0.25 0.28125q-0.078125 0.171875 -0.078125 0.46875l0 1.421875l-0.4375 0zm4.744507 -0.828125l0.453125 0.046875q-0.109375 0.40625 -0.40625 0.625q-0.28125 0.21875 -0.734375 0.21875q-0.578125 0 -0.90625 -0.34375q-0.328125 -0.359375 -0.328125 -1.0q0 -0.640625 0.328125 -1.0q0.34375 -0.375 0.875 -0.375q0.53125 0 0.859375 0.359375q0.328125 0.359375 0.328125 1.0q0 0.03125 0 0.109375l-1.9375 0q0.015625 0.4375 0.234375 0.671875q0.21875 0.21875 0.546875 0.21875q0.234375 0 0.40625 -0.125q0.171875 -0.140625 0.28125 -0.40625zm-1.453125 -0.71875l1.453125 0q-0.03125 -0.328125 -0.171875 -0.484375q-0.203125 -0.265625 -0.53125 -0.265625q-0.3125 0 -0.515625 0.203125q-0.203125 0.203125 -0.234375 0.546875zm4.1154633 -1.53125l0 -0.5l0.4375 0l0 0.5l-0.4375 0zm0 3.078125l0 -2.59375l0.4375 0l0 2.59375l-0.4375 0zm1.1837463 0l0 -2.59375l0.390625 0l0 0.375q0.296875 -0.4375 0.828125 -0.4375q0.234375 0 0.421875 0.09375q0.203125 0.078125 0.296875 0.21875q0.109375 0.140625 0.140625 0.328125q0.03125 0.109375 0.03125 0.421875l0 1.59375l-0.4375 0l0 -1.578125q0 -0.265625 -0.0625 -0.390625q-0.046875 -0.140625 -0.171875 -0.21875q-0.125 -0.078125 -0.3125 -0.078125q-0.28125 0 -0.484375 0.171875q-0.203125 0.171875 -0.203125 0.671875l0 1.421875l-0.4375 0zm4.650757 0l0 -0.328125q-0.25 0.390625 -0.734375 0.390625q-0.296875 0 -0.5625 -0.171875q-0.265625 -0.171875 -0.40625 -0.46875q-0.140625 -0.3125 -0.140625 -0.71875q0 -0.390625 0.125 -0.703125q0.140625 -0.3125 0.390625 -0.484375q0.265625 -0.171875 0.578125 -0.171875q0.234375 0 0.421875 0.109375q0.1875 0.09375 0.296875 0.25l0 -1.28125l0.4375 0l0 3.578125l-0.40625 0zm-1.390625 -1.296875q0 0.5 0.203125 0.75q0.21875 0.25 0.5 0.25q0.28125 0 0.484375 -0.234375q0.203125 -0.25 0.203125 -0.71875q0 -0.546875 -0.203125 -0.78125q-0.203125 -0.25 -0.5 -0.25q-0.296875 0 -0.5 0.234375q-0.1875 0.234375 -0.1875 0.75zm4.447632 0.46875l0.453125 0.046875q-0.109375 0.40625 -0.40625 0.625q-0.28125 0.21875 -0.734375 0.21875q-0.578125 0 -0.90625 -0.34375q-0.328125 -0.359375 -0.328125 -1.0q0 -0.640625 0.328125 -1.0q0.34375 -0.375 0.875 -0.375q0.53125 0 0.859375 0.359375q0.328125 0.359375 0.328125 1.0q0 0.03125 0 0.109375l-1.9375 0q0.015625 0.4375 0.234375 0.671875q0.21875 0.21875 0.546875 0.21875q0.234375 0 0.40625 -0.125q0.171875 -0.140625 0.28125 -0.40625zm-1.453125 -0.71875l1.453125 0q-0.03125 -0.328125 -0.171875 -0.484375q-0.203125 -0.265625 -0.53125 -0.265625q-0.3125 0 -0.515625 0.203125q-0.203125 0.203125 -0.234375 0.546875zm2.3382568 1.546875l0.953125 -1.34375l-0.875 -1.25l0.546875 0l0.40625 0.609375q0.109375 0.171875 0.171875 0.296875q0.109375 -0.171875 0.203125 -0.296875l0.4375 -0.609375l0.515625 0l-0.890625 1.21875l0.96875 1.375l-0.546875 0l-0.53125 -0.8125l-0.140625 -0.203125l-0.6875 1.015625l-0.53125 0z" fill-rule="nonzero"></path><path fill="#000000" d="m109.39466 45.729374l0.0625 0.390625q-0.1875 0.03125 -0.34375 0.03125q-0.234375 0 -0.375 -0.078125q-0.125 -0.078125 -0.1875 -0.1875q-0.046875 -0.125 -0.046875 -0.53125l0 -1.484375l-0.3125 0l0 -0.34375l0.3125 0l0 -0.640625l0.4375 -0.265625l0 0.90625l0.453125 0l0 0.34375l-0.453125 0l0 1.515625q0 0.1875 0.015625 0.25q0.03125 0.046875 0.078125 0.078125q0.0625 0.03125 0.15625 0.03125q0.078125 0 0.203125 -0.015625zm0.5115814 0.390625l0 -3.578125l0.4375 0l0 1.28125q0.3125 -0.359375 0.78125 -0.359375q0.28125 0 0.5 0.125q0.21875 0.109375 0.296875 0.3125q0.09375 0.1875 0.09375 0.578125l0 1.640625l-0.4375 0l0 -1.640625q0 -0.328125 -0.140625 -0.46875q-0.140625 -0.15625 -0.40625 -0.15625q-0.1875 0 -0.359375 0.09375q-0.171875 0.09375 -0.25 0.28125q-0.078125 0.171875 -0.078125 0.46875l0 1.421875l-0.4375 0zm4.744507 -0.828125l0.453125 0.046875q-0.109375 0.40625 -0.40625 0.625q-0.28125 0.21875 -0.734375 0.21875q-0.578125 0 -0.90625 -0.34375q-0.328125 -0.359375 -0.328125 -1.0q0 -0.640625 0.328125 -1.0q0.34375 -0.375 0.875 -0.375q0.53125 0 0.859375 0.359375q0.328125 0.359375 0.328125 1.0q0 0.03125 0 0.109375l-1.9375 0q0.015625 0.4375 0.234375 0.671875q0.21875 0.21875 0.546875 0.21875q0.234375 0 0.40625 -0.125q0.171875 -0.140625 0.28125 -0.40625zm-1.453125 -0.71875l1.453125 0q-0.03125 -0.328125 -0.171875 -0.484375q-0.203125 -0.265625 -0.53125 -0.265625q-0.3125 0 -0.515625 0.203125q-0.203125 0.203125 -0.234375 0.546875zm4.5217133 1.546875l-0.40625 0l0 -3.578125l0.4375 0l0 1.28125q0.28125 -0.359375 0.71875 -0.359375q0.234375 0 0.4375 0.109375q0.21875 0.09375 0.359375 0.265625q0.140625 0.171875 0.21875 0.421875q0.078125 0.25 0.078125 0.53125q0 0.65625 -0.328125 1.03125q-0.328125 0.359375 -0.796875 0.359375q-0.453125 0 -0.71875 -0.390625l0 0.328125zm0 -1.3125q0 0.46875 0.125 0.671875q0.203125 0.34375 0.5625 0.34375q0.28125 0 0.484375 -0.25q0.21875 -0.25 0.21875 -0.75q0 -0.515625 -0.203125 -0.75q-0.203125 -0.25 -0.484375 -0.25q-0.28125 0 -0.5 0.25q-0.203125 0.25 -0.203125 0.734375zm4.338257 0.484375l0.453125 0.046875q-0.109375 0.40625 -0.40625 0.625q-0.28125 0.21875 -0.734375 0.21875q-0.578125 0 -0.90625 -0.34375q-0.328125 -0.359375 -0.328125 -1.0q0 -0.640625 0.328125 -1.0q0.34375 -0.375 0.875 -0.375q0.53125 0 0.859375 0.359375q0.328125 0.359375 0.328125 1.0q0 0.03125 0 0.109375l-1.9375 0q0.015625 0.4375 0.234375 0.671875q0.21875 0.21875 0.546875 0.21875q0.234375 0 0.40625 -0.125q0.171875 -0.140625 0.28125 -0.40625zm-1.453125 -0.71875l1.453125 0q-0.03125 -0.328125 -0.171875 -0.484375q-0.203125 -0.265625 -0.53125 -0.265625q-0.3125 0 -0.515625 0.203125q-0.203125 0.203125 -0.234375 0.546875zm3.6038818 1.15625l0.0625 0.390625q-0.1875 0.03125 -0.34375 0.03125q-0.234375 0 -0.375 -0.078125q-0.125 -0.078125 -0.1875 -0.1875q-0.046875 -0.125 -0.046875 -0.53125l0 -1.484375l-0.3125 0l0 -0.34375l0.3125 0l0 -0.640625l0.4375 -0.265625l0 0.90625l0.453125 0l0 0.34375l-0.453125 0l0 1.515625q0 0.1875 0.015625 0.25q0.03125 0.046875 0.078125 0.078125q0.0625 0.03125 0.15625 0.03125q0.078125 0 0.203125 -0.015625zm1.4803314 0l0.0625 0.390625q-0.1875 0.03125 -0.34375 0.03125q-0.234375 0 -0.375 -0.078125q-0.125 -0.078125 -0.1875 -0.1875q-0.046875 -0.125 -0.046875 -0.53125l0 -1.484375l-0.3125 0l0 -0.34375l0.3125 0l0 -0.640625l0.4375 -0.265625l0 0.90625l0.453125 0l0 0.34375l-0.453125 0l0 1.515625q0 0.1875 0.015625 0.25q0.03125 0.046875 0.078125 0.078125q0.0625 0.03125 0.15625 0.03125q0.078125 0 0.203125 -0.015625zm2.2928314 -0.4375l0.45311737 0.046875q-0.109375 0.40625 -0.40625 0.625q-0.28124237 0.21875 -0.7343674 0.21875q-0.578125 0 -0.90625 -0.34375q-0.328125 -0.359375 -0.328125 -1.0q0 -0.640625 0.328125 -1.0q0.34375 -0.375 0.875 -0.375q0.53125 0 0.8593674 0.359375q0.328125 0.359375 0.328125 1.0q0 0.03125 0 0.109375l-1.9374924 0q0.015625 0.4375 0.234375 0.671875q0.21875 0.21875 0.546875 0.21875q0.234375 0 0.40625 -0.125q0.171875 -0.140625 0.28125 -0.40625zm-1.453125 -0.71875l1.453125 0q-0.03125 -0.328125 -0.171875 -0.484375q-0.203125 -0.265625 -0.53125 -0.265625q-0.3125 0 -0.515625 0.203125q-0.203125 0.203125 -0.234375 0.546875zm2.6351242 1.546875l0 -2.59375l0.390625 0l0 0.390625q0.15625 -0.265625 0.28125 -0.359375q0.125 -0.09375 0.28125 -0.09375q0.21875 0 0.453125 0.140625l-0.15625 0.40625q-0.15625 -0.09375 -0.3125 -0.09375q-0.15625 0 -0.265625 0.09375q-0.109375 0.078125 -0.15625 0.234375q-0.078125 0.234375 -0.078125 0.515625l0 1.359375l-0.4375 0zm4.2233887 -0.390625l0.0625 0.390625q-0.1875 0.03125 -0.34375 0.03125q-0.234375 0 -0.375 -0.078125q-0.125 -0.078125 -0.1875 -0.1875q-0.046875 -0.125 -0.046875 -0.53125l0 -1.484375l-0.3125 0l0 -0.34375l0.3125 0l0 -0.640625l0.4375 -0.265625l0 0.90625l0.453125 0l0 0.34375l-0.453125 0l0 1.515625q0 0.1875 0.015625 0.25q0.03125 0.046875 0.078125 0.078125q0.0625 0.03125 0.15625 0.03125q0.078125 0 0.203125 -0.015625zm0.5115814 0.390625l0 -3.578125l0.4375 0l0 1.28125q0.3125 -0.359375 0.78125 -0.359375q0.28125 0 0.5 0.125q0.21875 0.109375 0.296875 0.3125q0.09375 0.1875 0.09375 0.578125l0 1.640625l-0.4375 0l0 -1.640625q0 -0.328125 -0.140625 -0.46875q-0.140625 -0.15625 -0.40625 -0.15625q-0.1875 0 -0.359375 0.09375q-0.171875 0.09375 -0.25 0.28125q-0.078125 0.171875 -0.078125 0.46875l0 1.421875l-0.4375 0zm4.744507 -0.828125l0.453125 0.046875q-0.109375 0.40625 -0.40625 0.625q-0.28125 0.21875 -0.734375 0.21875q-0.578125 0 -0.90625 -0.34375q-0.328125 -0.359375 -0.328125 -1.0q0 -0.640625 0.328125 -1.0q0.34375 -0.375 0.875 -0.375q0.53125 0 0.859375 0.359375q0.328125 0.359375 0.328125 1.0q0 0.03125 0 0.109375l-1.9375 0q0.015625 0.4375 0.234375 0.671875q0.21875 0.21875 0.546875 0.21875q0.234375 0 0.40625 -0.125q0.171875 -0.140625 0.28125 -0.40625zm-1.453125 -0.71875l1.453125 0q-0.03125 -0.328125 -0.171875 -0.484375q-0.203125 -0.265625 -0.53125 -0.265625q-0.3125 0 -0.515625 0.203125q-0.203125 0.203125 -0.234375 0.546875zm4.1154633 2.546875l0 -3.59375l0.40625 0l0 0.34375q0.140625 -0.203125 0.3125 -0.296875q0.1875 -0.109375 0.4375 -0.109375q0.328125 0 0.578125 0.171875q0.265625 0.171875 0.390625 0.484375q0.125 0.3125 0.125 0.6875q0 0.390625 -0.140625 0.71875q-0.140625 0.3125 -0.421875 0.484375q-0.265625 0.171875 -0.5625 0.171875q-0.21875 0 -0.40625 -0.09375q-0.171875 -0.09375 -0.28125 -0.234375l0 1.265625l-0.4375 0zm0.40625 -2.28125q0 0.5 0.203125 0.75q0.203125 0.234375 0.484375 0.234375q0.296875 0 0.5 -0.25q0.203125 -0.25 0.203125 -0.765625q0 -0.5 -0.203125 -0.75q-0.203125 -0.25 -0.484375 -0.25q-0.28125 0 -0.5 0.265625q-0.203125 0.265625 -0.203125 0.765625zm2.5570068 1.28125l0 -2.59375l0.390625 0l0 0.390625q0.15625 -0.265625 0.28125 -0.359375q0.125 -0.09375 0.28125 -0.09375q0.21875 0 0.453125 0.140625l-0.15625 0.40625q-0.15625 -0.09375 -0.3125 -0.09375q-0.15625 0 -0.265625 0.09375q-0.109375 0.078125 -0.15625 0.234375q-0.078125 0.234375 -0.078125 0.515625l0 1.359375l-0.4375 0zm1.7743073 -3.078125l0 -0.5l0.4375 0l0 0.5l-0.4375 0zm0 3.078125l0 -2.59375l0.4375 0l0 2.59375l-0.4375 0zm2.8712463 -0.953125l0.4375 0.0625q-0.0625 0.4375 -0.359375 0.703125q-0.296875 0.25 -0.71875 0.25q-0.53125 0 -0.859375 -0.34375q-0.3125 -0.359375 -0.3125 -1.0q0 -0.421875 0.125 -0.734375q0.140625 -0.328125 0.421875 -0.484375q0.296875 -0.15625 0.625 -0.15625q0.421875 0 0.6875 0.21875q0.28125 0.21875 0.34375 0.609375l-0.421875 0.0625q-0.0625 -0.265625 -0.21875 -0.390625q-0.15625 -0.140625 -0.375 -0.140625q-0.328125 0 -0.546875 0.25q-0.203125 0.234375 -0.203125 0.75q0 0.515625 0.203125 0.765625q0.203125 0.234375 0.53125 0.234375q0.25 0 0.421875 -0.15625q0.171875 -0.171875 0.21875 -0.5zm2.7578125 0.125l0.453125 0.046875q-0.109375 0.40625 -0.40625 0.625q-0.28125 0.21875 -0.734375 0.21875q-0.578125 0 -0.90625 -0.34375q-0.328125 -0.359375 -0.328125 -1.0q0 -0.640625 0.328125 -1.0q0.34375 -0.375 0.875 -0.375q0.53125 0 0.859375 0.359375q0.328125 0.359375 0.328125 1.0q0 0.03125 0 0.109375l-1.9375 0q0.015625 0.4375 0.234375 0.671875q0.21875 0.21875 0.546875 0.21875q0.234375 0 0.40625 -0.125q0.171875 -0.140625 0.28125 -0.40625zm-1.453125 -0.71875l1.453125 0q-0.03125 -0.328125 -0.171875 -0.484375q-0.203125 -0.265625 -0.53125 -0.265625q-0.3125 0 -0.515625 0.203125q-0.203125 0.203125 -0.234375 0.546875z" fill-rule="nonzero"></path><path fill="#ffffff" d="m60.8 48.138584l7.1181145 0l0 6.2677155l-7.1181145 0z" fill-rule="nonzero"></path><path stroke="#4a86e8" stroke-width="1.0" stroke-linejoin="round" stroke-linecap="butt" d="m60.8 48.138584l7.1181145 0l0 6.2677155l-7.1181145 0z" fill-rule="nonzero"></path><path fill="#ffffff" d="m48.0 48.138584l7.1181107 0l0 6.2677155l-7.1181107 0z" fill-rule="nonzero"></path><path stroke="#4a86e8" stroke-width="1.0" stroke-linejoin="round" stroke-linecap="butt" d="m48.0 48.138584l7.1181107 0l0 6.2677155l-7.1181107 0z" fill-rule="nonzero"></path><path fill="#ffffff" d="m34.48189 48.138584l7.118107 0l0 6.2677155l-7.118107 0z" fill-rule="nonzero"></path><path stroke="#4a86e8" stroke-width="1.0" stroke-linejoin="round" stroke-linecap="butt" d="m34.48189 48.138584l7.118107 0l0 6.2677155l-7.118107 0z" fill-rule="nonzero"></path><path fill="#ffffff" d="m21.68189 48.138584l7.1181087 0l0 6.2677155l-7.1181087 0z" fill-rule="nonzero"></path><path stroke="#4a86e8" stroke-width="1.0" stroke-linejoin="round" stroke-linecap="butt" d="m21.68189 48.138584l7.1181087 0l0 6.2677155l-7.1181087 0z" fill-rule="nonzero"></path><path fill="#ffffff" d="m41.6 25.738583l7.1181107 0l0 6.2677155l-7.1181107 0z" fill-rule="nonzero"></path><path stroke="#4a86e8" stroke-width="1.0" stroke-linejoin="round" stroke-linecap="butt" d="m41.6 25.738583l7.1181107 0l0 6.2677155l-7.1181107 0z" fill-rule="nonzero"></path><path fill="#ffffff" d="m54.4 35.2l7.118107 0l0 6.2677155l-7.118107 0z" fill-rule="nonzero"></path><path stroke="#4a86e8" stroke-width="1.0" stroke-linejoin="round" stroke-linecap="butt" d="m54.4 35.2l7.118107 0l0 6.2677155l-7.118107 0z" fill-rule="nonzero"></path><path fill="#ffffff" d="m28.08189 35.33858l7.1181107 0l0 6.2677193l-7.1181107 0z" fill-rule="nonzero"></path><path stroke="#4a86e8" stroke-width="1.0" stroke-linejoin="round" stroke-linecap="butt" d="m28.08189 35.33858l7.1181107 0l0 6.2677193l-7.1181107 0z" fill-rule="nonzero"></path><path fill="#000000" fill-opacity="0.0" d="m25.247244 48.157482l6.3937016 -6.551182" fill-rule="nonzero"></path><path stroke="#000000" stroke-width="1.0" stroke-linejoin="round" stroke-linecap="butt" d="m25.247244 48.157482l6.3937016 -6.551182" fill-rule="nonzero"></path><path fill="#000000" fill-opacity="0.0" d="m38.034645 48.157482l-6.3936996 -6.551182" fill-rule="nonzero"></path><path stroke="#000000" stroke-width="1.0" stroke-linejoin="round" stroke-linecap="butt" d="m38.034645 48.157482l-6.3936996 -6.551182" fill-rule="nonzero"></path><path fill="#000000" fill-opacity="0.0" d="m51.565353 48.144882l6.3937035 -6.677166" fill-rule="nonzero"></path><path stroke="#000000" stroke-width="1.0" stroke-linejoin="round" stroke-linecap="butt" d="m51.565353 48.144882l6.3937035 -6.677166" fill-rule="nonzero"></path><path fill="#000000" fill-opacity="0.0" d="m64.359055 48.138584l-6.3936996 -6.677166" fill-rule="nonzero"></path><path stroke="#000000" stroke-width="1.0" stroke-linejoin="round" stroke-linecap="butt" d="m64.359055 48.138584l-6.3936996 -6.677166" fill-rule="nonzero"></path><path fill="#000000" fill-opacity="0.0" d="m31.640945 35.33858l13.51181 -3.338581" fill-rule="nonzero"></path><path stroke="#000000" stroke-width="1.0" stroke-linejoin="round" stroke-linecap="butt" d="m31.640945 35.33858l13.51181 -3.338581" fill-rule="nonzero"></path><path fill="#000000" fill-opacity="0.0" d="m57.959057 35.2l-12.787403 -3.1811028" fill-rule="nonzero"></path><path stroke="#000000" stroke-width="1.0" stroke-linejoin="round" stroke-linecap="butt" d="m57.959057 35.2l-12.787403 -3.1811028" fill-rule="nonzero"></path><path fill="#000000" fill-opacity="0.0" d="m19.2 0l54.393703 0l0 22.393702l-54.393703 0z" fill-rule="nonzero"></path><path fill="#000000" d="m25.023804 9.4925l1.109375 -0.171875q0.0625 0.328125 0.28125 0.5q0.21875 0.15625 0.59375 0.15625q0.4375 0 0.640625 -0.15625q0.15625 -0.109375 0.15625 -0.296875q0 -0.125 -0.078125 -0.203125q-0.09375 -0.078125 -0.375 -0.140625q-1.328125 -0.296875 -1.6875 -0.53125q-0.484375 -0.34375 -0.484375 -0.9375q0 -0.546875 0.421875 -0.90625q0.421875 -0.375 1.328125 -0.375q0.84375 0 1.25 0.28125q0.421875 0.28125 0.578125 0.828125l-1.03125 0.1875q-0.0625 -0.25 -0.25 -0.375q-0.1875 -0.125 -0.53125 -0.125q-0.4375 0 -0.625 0.125q-0.125 0.078125 -0.125 0.21875q0 0.109375 0.109375 0.203125q0.15625 0.109375 1.03125 0.3125q0.875 0.1875 1.21875 0.484375q0.34375 0.28125 0.34375 0.8125q0 0.5625 -0.484375 0.984375q-0.46875 0.40625 -1.40625 0.40625q-0.84375 0 -1.34375 -0.34375q-0.484375 -0.34375 -0.640625 -0.9375zm6.7460938 -2.96875l0 0.875l-0.75 0l0 1.671875q0 0.515625 0.015625 0.609375q0.015625 0.078125 0.09375 0.140625q0.078125 0.046875 0.1875 0.046875q0.15625 0 0.4375 -0.109375l0.09375 0.84375q-0.375 0.171875 -0.859375 0.171875q-0.296875 0 -0.546875 -0.09375q-0.234375 -0.109375 -0.34375 -0.265625q-0.109375 -0.15625 -0.15625 -0.421875q-0.03125 -0.203125 -0.03125 -0.78125l0 -1.8125l-0.5 0l0 -0.875l0.5 0l0 -0.8125l1.109375 -0.640625l0 1.453125l0.75 0zm4.5546875 4.15625l-1.015625 0l0 -0.609375q-0.25 0.359375 -0.59375 0.53125q-0.34375 0.171875 -0.703125 0.171875q-0.71875 0 -1.234375 -0.578125q-0.5 -0.578125 -0.5 -1.609375q0 -1.046875 0.5 -1.59375q0.5 -0.5625 1.25 -0.5625q0.703125 0 1.203125 0.578125l0 -2.0625l1.09375 0l0 5.734375zm-2.921875 -2.171875q0 0.671875 0.1875 0.96875q0.265625 0.421875 0.734375 0.421875q0.375 0 0.640625 -0.3125q0.265625 -0.328125 0.265625 -0.96875q0 -0.71875 -0.265625 -1.03125q-0.25 -0.3125 -0.640625 -0.3125q-0.390625 0 -0.65625 0.3125q-0.265625 0.3125 -0.265625 0.921875zm4.2148438 -0.875l0 -1.109375l1.109375 0l0 1.109375l-1.109375 0zm0 3.046875l0 -1.09375l1.109375 0l0 1.09375l-1.109375 0zm2.6640625 -3.046875l0 -1.109375l1.109375 0l0 1.109375l-1.109375 0zm0 3.046875l0 -1.09375l1.109375 0l0 1.09375l-1.109375 0zm2.3828125 -4.15625l1.0 0l0 0.578125q0.546875 -0.671875 1.296875 -0.671875q0.40625 0 0.6875 0.171875q0.296875 0.15625 0.484375 0.5q0.28125 -0.34375 0.59375 -0.5q0.3125 -0.171875 0.671875 -0.171875q0.453125 0 0.765625 0.1875q0.328125 0.1875 0.484375 0.546875q0.109375 0.265625 0.109375 0.859375l0 2.65625l-1.09375 0l0 -2.375q0 -0.609375 -0.109375 -0.796875q-0.15625 -0.234375 -0.46875 -0.234375q-0.234375 0 -0.4375 0.140625q-0.203125 0.140625 -0.296875 0.421875q-0.09375 0.265625 -0.09375 0.84375l0 2.0l-1.09375 0l0 -2.28125q0 -0.59375 -0.0625 -0.765625q-0.046875 -0.1875 -0.171875 -0.265625q-0.125 -0.09375 -0.34375 -0.09375q-0.25 0 -0.453125 0.140625q-0.203125 0.140625 -0.296875 0.40625q-0.078125 0.25 -0.078125 0.84375l0 2.015625l-1.09375 0l0 -4.15625zm8.003906 1.265625l-0.984375 -0.171875q0.15625 -0.609375 0.5625 -0.890625q0.421875 -0.296875 1.234375 -0.296875q0.734375 0 1.09375 0.1875q0.359375 0.171875 0.5 0.4375q0.140625 0.265625 0.140625 0.984375l0 1.28125q0 0.546875 0.046875 0.8125q0.046875 0.25 0.203125 0.546875l-1.09375 0q-0.046875 -0.109375 -0.109375 -0.328125q-0.015625 -0.09375 -0.03125 -0.125q-0.28125 0.265625 -0.609375 0.40625q-0.3125 0.140625 -0.671875 0.140625q-0.640625 0 -1.015625 -0.34375q-0.375 -0.359375 -0.375 -0.890625q0 -0.34375 0.171875 -0.609375q0.171875 -0.28125 0.46875 -0.421875q0.3125 -0.15625 0.875 -0.265625q0.765625 -0.140625 1.0625 -0.265625l0 -0.109375q0 -0.328125 -0.15625 -0.453125q-0.15625 -0.140625 -0.578125 -0.140625q-0.296875 0 -0.46875 0.125q-0.15625 0.109375 -0.265625 0.390625zm1.46875 0.890625q-0.203125 0.078125 -0.671875 0.171875q-0.453125 0.09375 -0.59375 0.1875q-0.203125 0.15625 -0.203125 0.390625q0 0.234375 0.171875 0.40625q0.171875 0.15625 0.4375 0.15625q0.296875 0 0.5625 -0.1875q0.203125 -0.15625 0.265625 -0.359375q0.03125 -0.140625 0.03125 -0.546875l0 -0.21875zm2.1367188 -2.15625l1.015625 0l0 0.609375q0.203125 -0.3125 0.546875 -0.5q0.34375 -0.203125 0.75 -0.203125q0.71875 0 1.21875 0.578125q0.515625 0.5625 0.515625 1.578125q0 1.03125 -0.515625 1.609375q-0.5 0.578125 -1.21875 0.578125q-0.34375 0 -0.625 -0.140625q-0.28125 -0.140625 -0.59375 -0.46875l0 2.09375l-1.09375 0l0 -5.734375zm1.078125 2.015625q0 0.6875 0.28125 1.03125q0.28125 0.328125 0.671875 0.328125q0.390625 0 0.640625 -0.296875q0.25 -0.3125 0.25 -1.015625q0 -0.65625 -0.265625 -0.96875q-0.25 -0.3125 -0.640625 -0.3125q-0.40625 0 -0.671875 0.3125q-0.265625 0.3125 -0.265625 0.921875zm7.5585938 1.484375l-3.921875 -1.703125l0 -0.953125l3.921875 -1.6875l0 1.109375l-2.734375 1.046875l2.734375 1.078125l0 1.109375zm0.75 0l0 -1.09375l2.734375 -1.078125l-2.734375 -1.078125l0 -1.09375l3.921875 1.703125l0 0.9375l-3.921875 1.703125z" fill-rule="nonzero"></path><path fill="#000000" fill-opacity="0.0" d="m80.0 0l102.39371 0l0 22.393702l-102.39371 0z" fill-rule="nonzero"></path><path fill="#000000" d="m106.04256 9.4925l1.109375 -0.171875q0.0625 0.328125 0.28125 0.5q0.21875 0.15625 0.59375 0.15625q0.4375 0 0.640625 -0.15625q0.15625 -0.109375 0.15625 -0.296875q0 -0.125 -0.078125 -0.203125q-0.09375 -0.078125 -0.375 -0.140625q-1.328125 -0.296875 -1.6875 -0.53125q-0.484375 -0.34375 -0.484375 -0.9375q0 -0.546875 0.421875 -0.90625q0.421875 -0.375 1.328125 -0.375q0.84375 0 1.25 0.28125q0.421875 0.28125 0.578125 0.828125l-1.03125 0.1875q-0.0625 -0.25 -0.25 -0.375q-0.1875 -0.125 -0.53125 -0.125q-0.4375 0 -0.625 0.125q-0.125 0.078125 -0.125 0.21875q0 0.109375 0.109375 0.203125q0.15625 0.109375 1.03125 0.3125q0.875 0.1875 1.21875 0.484375q0.34375 0.28125 0.34375 0.8125q0 0.5625 -0.484375 0.984375q-0.46875 0.40625 -1.40625 0.40625q-0.84375 0 -1.34375 -0.34375q-0.484375 -0.34375 -0.640625 -0.9375zm6.7460938 -2.96875l0 0.875l-0.75 0l0 1.671875q0 0.515625 0.015625 0.609375q0.015625 0.078125 0.09375 0.140625q0.078125 0.046875 0.1875 0.046875q0.15625 0 0.4375 -0.109375l0.09375 0.84375q-0.375 0.171875 -0.859375 0.171875q-0.296875 0 -0.546875 -0.09375q-0.234375 -0.109375 -0.34375 -0.265625q-0.109375 -0.15625 -0.15625 -0.421875q-0.03125 -0.203125 -0.03125 -0.78125l0 -1.8125l-0.5 0l0 -0.875l0.5 0l0 -0.8125l1.109375 -0.640625l0 1.453125l0.75 0zm4.5546875 4.15625l-1.015625 0l0 -0.609375q-0.25 0.359375 -0.59375 0.53125q-0.34375 0.171875 -0.703125 0.171875q-0.71875 0 -1.234375 -0.578125q-0.5 -0.578125 -0.5 -1.609375q0 -1.046875 0.5 -1.59375q0.5 -0.5625 1.25 -0.5625q0.703125 0 1.203125 0.578125l0 -2.0625l1.09375 0l0 5.734375zm-2.921875 -2.171875q0 0.671875 0.1875 0.96875q0.265625 0.421875 0.734375 0.421875q0.375 0 0.640625 -0.3125q0.265625 -0.328125 0.265625 -0.96875q0 -0.71875 -0.265625 -1.03125q-0.25 -0.3125 -0.640625 -0.3125q-0.390625 0 -0.65625 0.3125q-0.265625 0.3125 -0.265625 0.921875zm4.2148438 -0.875l0 -1.109375l1.109375 0l0 1.109375l-1.109375 0zm0 3.046875l0 -1.09375l1.109375 0l0 1.09375l-1.109375 0zm2.6640625 -3.046875l0 -1.109375l1.109375 0l0 1.109375l-1.109375 0zm0 3.046875l0 -1.09375l1.109375 0l0 1.09375l-1.109375 0zm3.6015625 0l-1.671875 -4.15625l1.15625 0l0.78125 2.125l0.21875 0.703125q0.09375 -0.265625 0.109375 -0.359375q0.0625 -0.171875 0.125 -0.34375l0.78125 -2.125l1.140625 0l-1.65625 4.15625l-0.984375 0zm5.7148438 -1.328125l1.09375 0.1875q-0.21875 0.609375 -0.671875 0.921875q-0.453125 0.3125 -1.140625 0.3125q-1.078125 0 -1.59375 -0.703125q-0.421875 -0.578125 -0.421875 -1.4375q0 -1.03125 0.53125 -1.609375q0.546875 -0.59375 1.375 -0.59375q0.921875 0 1.453125 0.625q0.546875 0.609375 0.515625 1.859375l-2.75 0q0.015625 0.5 0.265625 0.765625q0.265625 0.265625 0.640625 0.265625q0.25 0 0.421875 -0.140625q0.1875 -0.140625 0.28125 -0.453125zm0.0625 -1.109375q-0.015625 -0.46875 -0.25 -0.71875q-0.234375 -0.25 -0.578125 -0.25q-0.359375 0 -0.59375 0.265625q-0.234375 0.265625 -0.21875 0.703125l1.640625 0zm5.5898438 -0.484375l-1.078125 0.1875q-0.046875 -0.3125 -0.25 -0.46875q-0.1875 -0.171875 -0.5 -0.171875q-0.40625 0 -0.65625 0.28125q-0.234375 0.28125 -0.234375 0.9375q0 0.75 0.234375 1.0625q0.25 0.296875 0.671875 0.296875q0.3125 0 0.515625 -0.171875q0.203125 -0.1875 0.28125 -0.625l1.078125 0.1875q-0.171875 0.734375 -0.65625 1.125q-0.46875 0.375 -1.265625 0.375q-0.90625 0 -1.453125 -0.578125q-0.546875 -0.578125 -0.546875 -1.59375q0 -1.015625 0.546875 -1.59375q0.546875 -0.578125 1.46875 -0.578125q0.765625 0 1.203125 0.328125q0.453125 0.328125 0.640625 1.0zm2.7460938 -1.234375l0 0.875l-0.75 0l0 1.671875q0 0.515625 0.015625 0.609375q0.015625 0.078125 0.09375 0.140625q0.078125 0.046875 0.1875 0.046875q0.15625 0 0.4375 -0.109375l0.09375 0.84375q-0.375 0.171875 -0.859375 0.171875q-0.296875 0 -0.546875 -0.09375q-0.234375 -0.109375 -0.34375 -0.265625q-0.109375 -0.15625 -0.15625 -0.421875q-0.03125 -0.203125 -0.03125 -0.78125l0 -1.8125l-0.5 0l0 -0.875l0.5 0l0 -0.8125l1.109375 -0.640625l0 1.453125l0.75 0zm0.5078125 2.015625q0 -0.546875 0.265625 -1.046875q0.265625 -0.515625 0.75 -0.78125q0.5 -0.28125 1.109375 -0.28125q0.953125 0 1.546875 0.625q0.609375 0.609375 0.609375 1.53125q0 0.953125 -0.609375 1.578125q-0.609375 0.609375 -1.53125 0.609375q-0.578125 0 -1.09375 -0.25q-0.515625 -0.265625 -0.78125 -0.765625q-0.265625 -0.5 -0.265625 -1.21875zm1.125 0.0625q0 0.625 0.28125 0.953125q0.296875 0.328125 0.734375 0.328125q0.421875 0 0.703125 -0.328125q0.296875 -0.328125 0.296875 -0.953125q0 -0.609375 -0.296875 -0.9375q-0.28125 -0.328125 -0.703125 -0.328125q-0.4375 0 -0.734375 0.328125q-0.28125 0.328125 -0.28125 0.9375zm5.0585938 2.078125l-1.09375 0l0 -4.15625l1.015625 0l0 0.59375q0.265625 -0.421875 0.46875 -0.546875q0.21875 -0.140625 0.484375 -0.140625q0.375 0 0.71875 0.21875l-0.34375 0.953125q-0.28125 -0.1875 -0.515625 -0.1875q-0.234375 0 -0.390625 0.140625q-0.15625 0.125 -0.25 0.453125q-0.09375 0.328125 -0.09375 1.390625l0 1.28125zm5.7851562 -0.65625l-3.921875 -1.703125l0 -0.953125l3.921875 -1.6875l0 1.109375l-2.734375 1.046875l2.734375 1.078125l0 1.109375zm0.75 0l0 -1.09375l2.734375 -1.078125l-2.734375 -1.078125l0 -1.09375l3.921875 1.703125l0 0.9375l-3.921875 1.703125z" fill-rule="nonzero"></path><path fill="#000000" fill-opacity="0.0" d="m86.4 60.8l47.999992 0l0 16.000004l-47.999992 0z" fill-rule="nonzero"></path><path fill="#000000" d="m99.20469 67.32375l0 0.875l-0.75 0l0 1.671875q0 0.515625 0.015625 0.609375q0.015625 0.078125 0.09375 0.140625q0.078125 0.046875 0.1875 0.046875q0.15625 0 0.4375 -0.109375l0.09375 0.84375q-0.375 0.171875 -0.859375 0.171875q-0.296875 0 -0.546875 -0.09375q-0.234375 -0.109375 -0.34375 -0.265625q-0.109375 -0.15625 -0.15625 -0.421875q-0.03125 -0.203125 -0.03125 -0.78125l0 -1.8125l-0.5 0l0 -0.875l0.5 0l0 -0.8125l1.109375 -0.640625l0 1.453125l0.75 0zm0.7109375 4.15625l0 -5.734375l1.109375 0l0 3.046875l1.28125 -1.46875l1.34375 0l-1.40625 1.515625l1.515625 2.640625l-1.1875 0l-1.046875 -1.859375l-0.5 0.53125l0 1.328125l-1.109375 0zm3.8398438 1.578125l0 -0.703125l4.5625 0l0 0.703125l-4.5625 0zm5.1054688 -6.296875l0 -1.015625l1.09375 0l0 1.015625l-1.09375 0zm0 4.71875l0 -4.15625l1.09375 0l0 4.15625l-1.09375 0zm5.9882812 0l-1.09375 0l0 -2.125q0 -0.671875 -0.078125 -0.859375q-0.0625 -0.203125 -0.21875 -0.3125q-0.15625 -0.109375 -0.375 -0.109375q-0.296875 0 -0.53125 0.15625q-0.21875 0.15625 -0.296875 0.421875q-0.078125 0.25 -0.078125 0.953125l0 1.875l-1.109375 0l0 -4.15625l1.03125 0l0 0.609375q0.53125 -0.703125 1.359375 -0.703125q0.359375 0 0.65625 0.140625q0.3125 0.125 0.46875 0.328125q0.15625 0.203125 0.203125 0.46875q0.0625 0.25 0.0625 0.734375l0 2.578125zm0.73046875 -1.1875l1.109375 -0.171875q0.0625 0.328125 0.28125 0.5q0.21875 0.15625 0.59375 0.15625q0.4375 0 0.640625 -0.15625q0.15625 -0.109375 0.15625 -0.296875q0 -0.125 -0.078125 -0.203125q-0.09375 -0.078125 -0.375 -0.140625q-1.328125 -0.296875 -1.6875 -0.53125q-0.484375 -0.34375 -0.484375 -0.9375q0 -0.546875 0.421875 -0.90625q0.421875 -0.375 1.328125 -0.375q0.84375 0 1.25 0.28125q0.421875 0.28125 0.578125 0.828125l-1.03125 0.1875q-0.0625 -0.25 -0.25 -0.375q-0.1875 -0.125 -0.53125 -0.125q-0.4375 0 -0.625 0.125q-0.125 0.078125 -0.125 0.21875q0 0.109375 0.109375 0.203125q0.15625 0.109375 1.03125 0.3125q0.875 0.1875 1.21875 0.484375q0.34375 0.28125 0.34375 0.8125q0 0.5625 -0.484375 0.984375q-0.46875 0.40625 -1.40625 0.40625q-0.84375 0 -1.34375 -0.34375q-0.484375 -0.34375 -0.640625 -0.9375zm4.8398438 -3.53125l0 -1.015625l1.09375 0l0 1.015625l-1.09375 0zm0 4.71875l0 -4.15625l1.09375 0l0 4.15625l-1.09375 0zm6.0195312 0l-1.015625 0l0 -0.609375q-0.25 0.359375 -0.59375 0.53125q-0.34375 0.171875 -0.703125 0.171875q-0.71875 0 -1.234375 -0.578125q-0.5 -0.578125 -0.5 -1.609375q0 -1.046875 0.5 -1.59375q0.5 -0.5625 1.25 -0.5625q0.703125 0 1.203125 0.578125l0 -2.0625l1.09375 0l0 5.734375zm-2.921875 -2.171875q0 0.671875 0.1875 0.96875q0.265625 0.421875 0.734375 0.421875q0.375 0 0.640625 -0.3125q0.265625 -0.328125 0.265625 -0.96875q0 -0.71875 -0.265625 -1.03125q-0.25 -0.3125 -0.640625 -0.3125q-0.390625 0 -0.65625 0.3125q-0.265625 0.3125 -0.265625 0.921875zm6.417961 0.84375l1.09375 0.1875q-0.21875 0.609375 -0.671875 0.921875q-0.453125 0.3125 -1.140625 0.3125q-1.078125 0 -1.5937424 -0.703125q-0.421875 -0.578125 -0.421875 -1.4375q0 -1.03125 0.53125 -1.609375q0.5468674 -0.59375 1.3749924 -0.59375q0.921875 0 1.453125 0.625q0.546875 0.609375 0.515625 1.859375l-2.75 0q0.015625 0.5 0.265625 0.765625q0.265625 0.265625 0.640625 0.265625q0.25 0 0.421875 -0.140625q0.1875 -0.140625 0.28125 -0.453125zm0.0625 -1.109375q-0.015625 -0.46875 -0.25 -0.71875q-0.234375 -0.25 -0.578125 -0.25q-0.359375 0 -0.59375 0.265625q-0.234375 0.265625 -0.21875 0.703125l1.640625 0z" fill-rule="nonzero"></path><path fill="#000000" fill-opacity="0.0" d="m134.4 68.8l13.8897705 0l0 -14.393703" fill-rule="nonzero"></path><path stroke="#000000" stroke-width="1.0" stroke-linejoin="round" stroke-linecap="butt" d="m134.4 68.8l13.8897705 0l0 -8.393703" fill-rule="evenodd"></path><path fill="#000000" stroke="#000000" stroke-width="1.0" stroke-linecap="butt" d="m149.9415 60.4063l-1.6517334 -4.5380974l-1.6517334 4.5380974z" fill-rule="evenodd"></path><path fill="#000000" fill-opacity="0.0" d="m0 60.8l69.32284 0l0 16.000004l-69.32284 0z" fill-rule="nonzero"></path><path fill="#000000" d="m19.025959 67.32375l0 0.875l-0.75 0l0 1.671875q0 0.515625 0.015625 0.609375q0.015625 0.078125 0.09375 0.140625q0.078125 0.046875 0.1875 0.046875q0.15625 0 0.4375 -0.109375l0.09375 0.84375q-0.375 0.171875 -0.859375 0.171875q-0.296875 0 -0.546875 -0.09375q-0.234375 -0.109375 -0.34375 -0.265625q-0.109375 -0.15625 -0.15625 -0.421875q-0.03125 -0.203125 -0.03125 -0.78125l0 -1.8125l-0.5 0l0 -0.875l0.5 0l0 -0.8125l1.109375 -0.640625l0 1.453125l0.75 0zm0.7109375 4.15625l0 -5.734375l1.109375 0l0 3.046875l1.28125 -1.46875l1.34375 0l-1.40625 1.515625l1.515625 2.640625l-1.1875 0l-1.046875 -1.859375l-0.5 0.53125l0 1.328125l-1.109375 0zm3.8398438 1.578125l0 -0.703125l4.5625 0l0 0.703125l-4.5625 0zm5.0585938 -1.578125l0 -5.734375l1.09375 0l0 2.0625q0.515625 -0.578125 1.203125 -0.578125q0.765625 0 1.25 0.5625q0.5 0.546875 0.5 1.5625q0 1.0625 -0.515625 1.640625q-0.5 0.578125 -1.21875 0.578125q-0.359375 0 -0.703125 -0.171875q-0.34375 -0.1875 -0.59375 -0.53125l0 0.609375l-1.015625 0zm1.09375 -2.171875q0 0.65625 0.203125 0.953125q0.28125 0.4375 0.75 0.4375q0.359375 0 0.609375 -0.296875q0.265625 -0.3125 0.265625 -0.984375q0 -0.71875 -0.265625 -1.03125q-0.25 -0.3125 -0.65625 -0.3125q-0.390625 0 -0.65625 0.3125q-0.25 0.296875 -0.25 0.921875zm6.2460938 0.84375l1.09375 0.1875q-0.21875 0.609375 -0.671875 0.921875q-0.453125 0.3125 -1.140625 0.3125q-1.078125 0 -1.59375 -0.703125q-0.421875 -0.578125 -0.421875 -1.4375q0 -1.03125 0.53125 -1.609375q0.546875 -0.59375 1.375 -0.59375q0.921875 0 1.453125 0.625q0.546875 0.609375 0.515625 1.859375l-2.75 0q0.015625 0.5 0.265625 0.765625q0.265625 0.265625 0.640625 0.265625q0.25 0 0.421875 -0.140625q0.1875 -0.140625 0.28125 -0.453125zm0.0625 -1.109375q-0.015625 -0.46875 -0.25 -0.71875q-0.234375 -0.25 -0.578125 -0.25q-0.359375 0 -0.59375 0.265625q-0.234375 0.265625 -0.21875 0.703125l1.640625 0zm1.8710938 2.71875l1.265625 0.140625q0.03125 0.21875 0.140625 0.3125q0.15625 0.109375 0.484375 0.109375q0.4375 0 0.65625 -0.125q0.140625 -0.09375 0.21875 -0.28125q0.046875 -0.140625 0.046875 -0.5l0 -0.609375q-0.5 0.671875 -1.25 0.671875q-0.828125 0 -1.3125 -0.703125q-0.390625 -0.5625 -0.390625 -1.390625q0 -1.046875 0.5 -1.59375q0.5 -0.5625 1.25 -0.5625q0.765625 0 1.265625 0.6875l0 -0.59375l1.03125 0l0 3.734375q0 0.734375 -0.125 1.09375q-0.109375 0.359375 -0.328125 0.5625q-0.21875 0.21875 -0.59375 0.328125q-0.359375 0.125 -0.921875 0.125q-1.046875 0 -1.5 -0.359375q-0.4375 -0.359375 -0.4375 -0.921875q0 -0.046875 0 -0.125zm0.984375 -2.4375q0 0.65625 0.25 0.96875q0.265625 0.296875 0.640625 0.296875q0.40625 0 0.671875 -0.3125q0.28125 -0.3125 0.28125 -0.9375q0 -0.640625 -0.265625 -0.953125q-0.265625 -0.3125 -0.671875 -0.3125q-0.390625 0 -0.65625 0.3125q-0.25 0.296875 -0.25 0.9375zm4.0117188 -2.5625l0 -1.015625l1.09375 0l0 1.015625l-1.09375 0zm0 4.71875l0 -4.15625l1.09375 0l0 4.15625l-1.09375 0zm5.9882812 0l-1.09375 0l0 -2.125q0 -0.671875 -0.078125 -0.859375q-0.0625 -0.203125 -0.21875 -0.3125q-0.15625 -0.109375 -0.375 -0.109375q-0.296875 0 -0.53125 0.15625q-0.21875 0.15625 -0.296875 0.421875q-0.078125 0.25 -0.078125 0.953125l0 1.875l-1.109375 0l0 -4.15625l1.03125 0l0 0.609375q0.53125 -0.703125 1.359375 -0.703125q0.359375 0 0.65625 0.140625q0.3125 0.125 0.46875 0.328125q0.15625 0.203125 0.203125 0.46875q0.0625 0.25 0.0625 0.734375l0 2.578125zm0.46484375 1.578125l0 -0.703125l4.5625 0l0 0.703125l-4.5625 0zm7.0117188 -5.734375l0 0.875l-0.75 0l0 1.671875q0 0.515625 0.015625 0.609375q0.015625 0.078125 0.09375 0.140625q0.078125 0.046875 0.1875 0.046875q0.15625 0 0.4375 -0.109375l0.09375 0.84375q-0.375 0.171875 -0.859375 0.171875q-0.296875 0 -0.546875 -0.09375q-0.234375 -0.109375 -0.34375 -0.265625q-0.109375 -0.15625 -0.15625 -0.421875q-0.03125 -0.203125 -0.03125 -0.78125l0 -1.8125l-0.5 0l0 -0.875l0.5 0l0 -0.8125l1.109375 -0.640625l0 1.453125l0.75 0zm0.5078125 2.015625q0 -0.546875 0.265625 -1.046875q0.265625 -0.515625 0.75 -0.78125q0.5 -0.28125 1.109375 -0.28125q0.953125 0 1.546875 0.625q0.609375 0.609375 0.609375 1.53125q0 0.953125 -0.609375 1.578125q-0.609375 0.609375 -1.53125 0.609375q-0.578125 0 -1.09375 -0.25q-0.515625 -0.265625 -0.78125 -0.765625q-0.265625 -0.5 -0.265625 -1.21875zm1.125 0.0625q0 0.625 0.28125 0.953125q0.296875 0.328125 0.734375 0.328125q0.421875 0 0.703125 -0.328125q0.296875 -0.328125 0.296875 -0.953125q0 -0.609375 -0.296875 -0.9375q-0.28125 -0.328125 -0.703125 -0.328125q-0.4375 0 -0.734375 0.328125q-0.28125 0.328125 -0.28125 0.9375zm3.9804688 -2.078125l1.015625 0l0 0.609375q0.203125 -0.3125 0.546875 -0.5q0.34375 -0.203125 0.7499962 -0.203125q0.71875 0 1.21875 0.578125q0.515625 0.5625 0.515625 1.578125q0 1.03125 -0.515625 1.609375q-0.5 0.578125 -1.21875 0.578125q-0.3437462 0 -0.6249962 -0.140625q-0.28125 -0.140625 -0.59375 -0.46875l0 2.09375l-1.09375 0l0 -5.734375zm1.078125 2.015625q0 0.6875 0.28125 1.03125q0.28125 0.328125 0.6718712 0.328125q0.390625 0 0.640625 -0.296875q0.25 -0.3125 0.25 -1.015625q0 -0.65625 -0.265625 -0.96875q-0.25 -0.3125 -0.6406212 -0.3125q-0.40625 0 -0.671875 0.3125q-0.265625 0.3125 -0.265625 0.921875z" fill-rule="nonzero"></path><path fill="#000000" fill-opacity="0.0" d="m69.32284 68.8l14.236214 0l0 -14.393703" fill-rule="nonzero"></path><path stroke="#000000" stroke-width="1.0" stroke-linejoin="round" stroke-linecap="butt" d="m69.32284 68.8l14.236214 0l0 -8.393703" fill-rule="evenodd"></path><path fill="#000000" stroke="#000000" stroke-width="1.0" stroke-linecap="butt" d="m85.210785 60.4063l-1.6517334 -4.5380974l-1.6517258 4.5380974z" fill-rule="evenodd"></path></g></svg>

